HIERARCHY
ROOT Hips
{
	OFFSET -0.001795 -0.223333 0.028219
	CHANNELS 6 Xposition Yposition Zposition Zrotation Yrotation Xrotation 
	JOINT LeftUpLeg
	{
		OFFSET 0.069520 -0.091406 -0.006815
		CHANNELS 3 Zrotation Yrotation Xrotation
		JOINT LeftLeg
		{
			OFFSET 0.034277 -0.375199 -0.004496
			CHANNELS 3 Zrotation Yrotation Xrotation
			JOINT LeftFoot
			{
				OFFSET -0.013596 -0.397961 -0.043693
				CHANNELS 3 Zrotation Yrotation Xrotation
				JOINT LeftToe
				{
					OFFSET 0.026358 -0.055791 0.119288
					CHANNELS 3 Zrotation Yrotation Xrotation
					End Site
					{
						OFFSET 0.000000 0.000000 0.000000
					}
				}
			}
		}
	}
	JOINT RightUpLeg
	{
		OFFSET -0.067670 -0.090522 -0.004320
		CHANNELS 3 Zrotation Yrotation Xrotation
		JOINT RightLeg
		{
			OFFSET -0.038290 -0.382569 -0.008850
			CHANNELS 3 Zrotation Yrotation Xrotation
			JOINT RightFoot
			{
				OFFSET 0.015774 -0.398415 -0.042312
				CHANNELS 3 Zrotation Yrotation Xrotation
				JOINT RightToe
				{
					OFFSET -0.025372 -0.048144 0.123348
					CHANNELS 3 Zrotation Yrotation Xrotation
					End Site
					{
						OFFSET 0.000000 0.000000 0.000000
					}
				}
			}
		}
	}
	JOINT Spine
	{
		OFFSET -0.002533 0.108963 -0.026696
		CHANNELS 3 Zrotation Yrotation Xrotation
		JOINT Spine1
		{
			OFFSET 0.005487 0.135180 0.001092
			CHANNELS 3 Zrotation Yrotation Xrotation
			JOINT Spine2
			{
				OFFSET 0.001457 0.052922 0.025425
				CHANNELS 3 Zrotation Yrotation Xrotation
				JOINT Neck
				{
					OFFSET -0.002778 0.213870 -0.042857
					CHANNELS 3 Zrotation Yrotation Xrotation
					JOINT Head
					{
						OFFSET 0.005152 0.064970 0.051349
						CHANNELS 3 Zrotation Yrotation Xrotation
						End Site
						{
							OFFSET 0.000000 0.000000 0.000000
						}
					}
				}
				JOINT LeftShoulder
				{
					OFFSET 0.078845 0.121749 -0.034090
					CHANNELS 3 Zrotation Yrotation Xrotation
					JOINT LeftArm
					{
						OFFSET 0.090977 0.030469 -0.008868
						CHANNELS 3 Zrotation Yrotation Xrotation
						JOINT LeftForeArm
						{
							OFFSET 0.259612 -0.012772 -0.027456
							CHANNELS 3 Zrotation Yrotation Xrotation
							JOINT LeftHand
							{
								OFFSET 0.249234 0.008986 -0.001171
								CHANNELS 3 Zrotation Yrotation Xrotation
								End Site
								{
									OFFSET 0.000000 0.000000 0.000000
								}
							}
						}
					}
				}
				JOINT RightShoulder
				{
					OFFSET -0.081759 0.118833 -0.038615
					CHANNELS 3 Zrotation Yrotation Xrotation
					JOINT RightArm
					{
						OFFSET -0.096012 0.032551 -0.009143
						CHANNELS 3 Zrotation Yrotation Xrotation
						JOINT RightForeArm
						{
							OFFSET -0.253742 -0.013329 -0.021401
							CHANNELS 3 Zrotation Yrotation Xrotation
							JOINT RightHand
							{
								OFFSET -0.255298 0.007772 -0.005559
								CHANNELS 3 Zrotation Yrotation Xrotation
								End Site
								{
									OFFSET 0.000000 0.000000 0.000000
								}
							}
						}
					}
				}
			}
		}
	}
}
MOTION
Frames: 13
Frame Time: 0.050000
0.016952 0.950350 0.930321 -2.374435 -0.780351 -1.079844 -0.713753 0.217867 2.164154 2.211850 -0.119799 -2.363432 -3.975260 -4.157709 7.634763 0.000000 0.000000 0.000000 3.555358 -0.193507 0.897024 -2.345535 0.301814 0.885382 4.052346 3.475247 10.698652 0.000000 0.000000 0.000000 -2.611110 -0.086378 5.436832 0.657693 -0.311391 -0.185062 1.969617 -0.158954 3.278607 1.005909 0.573035 -17.827507 0.000000 0.000000 0.000000 -29.916720 -0.828292 -2.213892 -40.512880 -4.673158 -3.318506 -13.767986 -26.403599 4.252113 0.000000 0.000000 0.000000 28.023605 5.588933 0.387602 46.001441 0.951095 -3.861268 7.951195 30.136777 2.916509 0.000000 0.000000 0.000000 
0.017144 0.950293 0.930159 -2.338631 -0.690215 -0.982330 -0.719928 0.207348 2.054123 2.139173 -0.111044 -2.397226 -4.024675 -4.227404 7.661892 0.000000 0.000000 0.000000 3.528161 -0.205675 0.991298 -2.382228 0.283541 0.514292 4.033167 3.421405 10.749974 0.000000 0.000000 0.000000 -2.613020 -0.085810 5.447097 0.683492 -0.320512 -0.278440 1.905717 -0.099372 3.321928 1.355474 0.389862 -17.919148 0.000000 0.000000 0.000000 -29.985847 -0.925597 -2.201976 -40.512799 -4.534200 -3.349990 -13.665451 -26.249946 4.196016 0.000000 0.000000 0.000000 28.022471 5.650598 0.478194 46.008934 0.872299 -3.907478 7.800252 30.386601 2.914168 0.000000 0.000000 0.000000 
0.017306 0.950275 0.929927 -2.281232 -0.468854 -0.943243 -0.672924 0.201618 2.009781 1.950628 -0.089716 -2.466729 -4.152479 -4.408376 7.728281 0.000000 0.000000 0.000000 3.498704 -0.205038 0.996836 -2.430894 0.284222 0.424206 3.929395 3.247458 10.740172 0.000000 0.000000 0.000000 -2.630840 -0.088931 5.662694 0.712409 -0.327173 -0.482039 1.803229 -0.126827 3.304127 1.576926 0.267845 -17.855326 0.000000 0.000000 0.000000 -30.062244 -1.176828 -2.084835 -40.345911 -4.471938 -3.343692 -13.498014 -26.257788 4.151991 0.000000 0.000000 0.000000 28.051614 5.466651 0.400423 45.922130 0.754352 -3.953927 7.899685 30.286996 2.935596 0.000000 0.000000 0.000000 
0.017435 0.950235 0.929685 -2.279921 -0.192510 -0.927730 -0.575006 0.196156 1.983606 1.791556 -0.071414 -2.531927 -4.297965 -4.630260 7.766694 0.000000 0.000000 0.000000 3.548404 -0.222357 1.124336 -2.503118 0.277443 0.166177 3.818664 3.041371 10.782423 0.000000 0.000000 0.000000 -2.587345 -0.097339 5.953931 0.684169 -0.314739 -0.435739 1.851976 -0.156851 3.003776 1.657284 0.250293 -18.046560 0.000000 0.000000 0.000000 -30.417149 -1.157304 -2.184565 -40.096078 -4.649576 -3.236457 -13.182708 -26.020933 4.031461 0.000000 0.000000 0.000000 28.149907 5.484615 0.431705 45.835043 0.759455 -3.929710 7.350965 29.836093 2.752449 0.000000 0.000000 0.000000 
0.017461 0.949971 0.929404 -2.202975 -0.050720 -0.979762 -0.520857 0.198092 2.021300 1.558124 -0.049329 -2.554672 -4.371878 -4.765514 7.742626 0.000000 0.000000 0.000000 3.570903 -0.251033 1.343879 -2.683161 0.278280 -0.139213 3.745424 2.944929 10.719597 0.000000 0.000000 0.000000 -2.627157 -0.101462 6.250190 0.743135 -0.342385 -0.448333 1.861422 -0.204881 2.837206 1.517487 0.324709 -17.918149 0.000000 0.000000 0.000000 -30.635917 -1.027373 -2.310659 -40.048090 -4.819690 -3.163933 -12.743213 -25.859152 3.900014 0.000000 0.000000 0.000000 27.872353 5.407204 0.397884 46.089463 0.858870 -3.905180 6.923000 29.495646 2.611843 0.000000 0.000000 0.000000 
0.017376 0.949818 0.929122 -2.180547 0.162976 -1.053064 -0.348155 0.198178 2.077313 1.243380 -0.020081 -2.582683 -4.490383 -4.958151 7.753755 0.000000 0.000000 0.000000 3.608723 -0.290366 1.641765 -2.762914 0.262309 -0.536668 3.665613 2.803337 10.740548 0.000000 0.000000 0.000000 -2.644381 -0.105845 6.474520 0.761122 -0.355233 -0.321894 1.907566 -0.268371 2.558711 1.335673 0.437880 -17.959195 0.000000 0.000000 0.000000 -30.933032 -1.048413 -2.348830 -39.878419 -4.970095 -3.084230 -12.312986 -25.624803 3.760810 0.000000 0.000000 0.000000 27.718224 5.407365 0.404572 46.340690 1.074550 -3.830391 6.137189 28.922380 2.364280 0.000000 0.000000 0.000000 
0.017068 0.949707 0.928785 -2.194823 0.226173 -0.987138 -0.258373 0.187538 1.990965 1.153221 -0.010941 -2.608573 -4.517206 -5.007091 7.743862 0.000000 0.000000 0.000000 3.579159 -0.317178 1.848398 -2.644512 0.216775 -1.070551 3.685837 2.796206 10.853642 0.000000 0.000000 0.000000 -2.650826 -0.105184 6.477769 0.868696 -0.407754 -0.291259 1.786973 -0.291137 2.525658 1.305810 0.449794 -17.834004 0.000000 0.000000 0.000000 -30.967221 -1.030343 -2.381787 -39.949079 -5.096898 -3.042596 -11.795043 -25.209470 3.578587 0.000000 0.000000 0.000000 27.726293 5.495849 0.475021 46.553801 1.254158 -3.784278 5.413435 28.555792 2.162939 0.000000 0.000000 0.000000 
0.016630 0.949670 0.928457 -2.299625 0.245007 -0.768912 -0.081064 0.163085 1.777249 1.094042 -0.001767 -2.698662 -4.522197 -5.010608 7.751996 0.000000 0.000000 0.000000 3.650609 -0.328286 1.895988 -2.515992 0.169636 -1.627019 3.742192 2.814955 11.048939 0.000000 0.000000 0.000000 -2.604542 -0.102125 6.255453 0.978518 -0.459199 -0.311784 1.731198 -0.314798 2.640826 1.234678 0.474166 -17.625865 0.000000 0.000000 0.000000 -30.858580 -1.048400 -2.354459 -40.146732 -5.303498 -2.999469 -11.482430 -24.817877 3.452935 0.000000 0.000000 0.000000 27.524981 5.477554 0.483687 46.955382 1.607018 -3.697740 4.674402 28.074044 1.954917 0.000000 0.000000 0.000000 
0.016077 0.949700 0.928134 -2.358376 0.268727 -0.668737 0.011462 0.149563 1.655548 1.111290 -0.002122 -2.722210 -4.530681 -5.016640 7.765861 0.000000 0.000000 0.000000 3.713823 -0.361909 2.122129 -2.452493 0.124322 -2.271156 3.807086 2.837739 11.269952 0.000000 0.000000 0.000000 -2.667280 -0.094336 6.075051 1.048227 -0.488093 -0.418444 1.777935 -0.286659 2.866173 1.379835 0.396353 -17.692740 0.000000 0.000000 0.000000 -31.033903 -1.329888 -2.185908 -40.000373 -5.313080 -2.999869 -11.156457 -24.688064 3.362897 0.000000 0.000000 0.000000 27.557556 5.609295 0.590878 46.967813 1.509798 -3.758395 4.374478 28.050440 1.889321 0.000000 0.000000 0.000000 
0.015536 0.949827 0.927802 -2.526619 0.328495 -0.536477 0.277853 0.132273 1.540233 1.038225 0.008899 -2.829487 -4.567051 -5.054618 7.808212 0.000000 0.000000 0.000000 3.828602 -0.348915 1.982731 -2.252983 0.104112 -2.320176 3.818596 2.798876 11.414510 0.000000 0.000000 0.000000 -2.597954 -0.096816 6.024677 1.177737 -0.541174 -0.623147 1.669315 -0.260432 3.096994 1.416464 0.381992 -17.685391 0.000000 0.000000 0.000000 -31.060849 -1.552041 -2.066889 -40.130777 -5.339085 -3.005515 -10.807483 -24.935323 3.320097 0.000000 0.000000 0.000000 27.850115 5.563144 0.593012 46.911661 1.467675 -3.797737 4.189339 28.068970 1.857084 0.000000 0.000000 0.000000 
0.015111 0.949875 0.927385 -2.645930 0.246105 -0.416055 0.380665 0.108441 1.296248 1.127449 -0.005963 -2.664323 -4.497224 -4.967387 7.745508 0.000000 0.000000 0.000000 3.981140 -0.333814 1.816484 -2.249499 0.103344 -2.320303 3.870898 2.852828 11.492655 0.000000 0.000000 0.000000 -2.621935 -0.090936 5.852940 1.214433 -0.551699 -0.783508 1.727947 -0.322410 3.411370 1.345398 0.435452 -18.040344 0.000000 0.000000 0.000000 -30.969787 -1.652474 -1.928039 -40.208241 -5.564417 -2.980789 -10.639366 -25.159191 3.322531 0.000000 0.000000 0.000000 27.788693 5.821935 0.734502 47.149806 1.398094 -3.859661 3.836825 28.236313 1.785764 0.000000 0.000000 0.000000 
0.014870 0.950141 0.926892 -2.647314 0.162433 -0.250489 0.381367 0.097710 1.173136 1.148222 -0.001260 -2.814454 -4.491526 -4.882783 7.900484 0.000000 0.000000 0.000000 4.131334 -0.318321 1.646532 -2.495361 0.118395 -2.412213 3.923103 2.885674 11.608731 0.000000 0.000000 0.000000 -2.827954 -0.074295 5.671315 1.318852 -0.594700 -0.934432 1.656480 -0.299221 3.647349 1.433862 0.340467 -17.502383 0.000000 0.000000 0.000000 -31.013070 -2.088521 -1.627444 -40.279718 -5.593343 -2.992775 -10.279730 -25.415331 3.279048 0.000000 0.000000 0.000000 27.921173 5.937974 0.816372 47.222214 1.409992 -3.880840 3.696971 28.282853 1.761534 0.000000 0.000000 0.000000 
0.014864 0.950585 0.926315 -2.637409 0.090783 -0.238372 0.405931 0.086853 1.053551 1.079066 -0.001323 -2.681754 -4.486200 -4.809662 8.031579 0.000000 0.000000 0.000000 4.154417 -0.288112 1.418308 -2.561003 0.142782 -2.105318 3.956604 2.902834 11.684299 0.000000 0.000000 0.000000 -2.960923 -0.065143 5.593380 1.330936 -0.604413 -0.843979 1.632483 -0.527898 3.651269 1.250382 0.408083 -17.348707 0.000000 0.000000 0.000000 -30.879863 -2.157172 -1.458091 -40.336426 -5.886010 -2.939385 -10.081227 -25.745080 3.291381 0.000000 0.000000 0.000000 27.915815 6.155906 0.851427 47.359182 1.227817 -3.928197 3.557867 28.523137 1.730178 0.000000 0.000000 0.000000 
